# xmcd CD database file
#
# Track frame offsets:
#	150
#	15787
#	25500
#	38387
#	49467
#	61697
#	76732
#	95717
#	103665
#	117057
#	134842
#	154060
#	174677
#	187097
#	207255
#	219230
#
# Disc length: 3151 seconds
#
# Revision: 0
# Processed by: cddbd v1.5.1PL0 Copyright (c) Steve Scherf et al.
# Submitted via: CDex 1.51
#
DISCID=cb0c4d10
DTITLE=One o'clock humph - Beyond the blue
DYEAR=1996
DGENRE=Blues
TTITLE0=Handa Wanda
TTITLE1=Ain't gonna let nobody step on me
TTITLE2=I ain't gonna hurry
TTITLE3=Morning train
TTITLE4=Carry me home
TTITLE5=Don't you cry
TTITLE6=Cry it out
TTITLE7=Everyday
TTITLE8=Va a cheval
TTITLE9=Who shot the La la
TTITLE10=My babe's in love with another guy
TTITLE11=Louis Collins
TTITLE12=Humdinger
TTITLE13=Reap what you sow
TTITLE14=Why do you do me like you do
TTITLE15=Felling good
EXTD=YEAR: 1996
EXTT0=
EXTT1=
EXTT2=
EXTT3=
EXTT4=
EXTT5=
EXTT6=
EXTT7=
EXTT8=
EXTT9=
EXTT10=
EXTT11=
EXTT12=
EXTT13=
EXTT14=
EXTT15=
PLAYORDER=
